<svg xmlns="http://www.w3.org/2000/svg" viewBox="0 0 138.38 55.25"><defs><style>.cls-1{fill:#686868;}</style></defs><g id="Layer_1-2"><path class="cls-1" d="M.25 7.36a1.11 1.11 0 0 1 .11-1.52 1 1 0 0 1 1.51.16 9.47 9.47 0 0 1 1.91 3.28c0 .2.07.44.11.64.18 1.05.29 2.19.38 3.42s.23 2.74.47 4.15a12 12 0 0 0 3.52 7.16c.73-2.74 1.43-5.19 1.47-5.19a1 1 0 0 1 1.32-.73 1.07 1.07 0 0 1 .73 1.32c0 .05-1 3.46-1.86 6.76a1.1 1.1 0 0 1-.66.74 1.13 1.13 0 0 1-1-.12c-5.34-3.65-5.79-9.38-6.16-13.92a31.37 31.37 0 0 0-.44-3.74 7.09 7.09 0 0 0-1.41-2.41zm21.09 1.07a1.06 1.06 0 0 1 .92-1.22 7.3 7.3 0 0 1 5.83 2.12 10.77 10.77 0 0 1 3.15 8.67 1.1 1.1 0 0 1-1.14 1 1.12 1.12 0 0 1-1-1.15 8.61 8.61 0 0 0-2.44-7 5.22 5.22 0 0 0-4.1-1.56 1 1 0 0 1-1.22-.86zM40 20.22c3.85-.52 6.3 1.58 6.74 3.87a6.8 6.8 0 0 1-2.41 6.39c-2.07 1.52-5.49 2.42-11 3a84.45 84.45 0 0 1-2.82 9.65c8.28-4.39 12.49-2.3 13.92-1.13a6.12 6.12 0 0 1 1.64 7.15c-1.19 3.15-5 6.38-11.78 6a1.09 1.09 0 0 1-1-1.14 1 1 0 0 1 1.1-1c5.73.28 8.75-2.21 9.69-4.67a4 4 0 0 0-1-4.7c-1-.82-4.95-3-14.15 2.86a1.08 1.08 0 0 1-1.55-1.39 61.8 61.8 0 0 0 3.62-11.44c-.9.13-1.84.21-2.74.33a5.55 5.55 0 0 1-4.13-1.39 1.07 1.07 0 0 1 1.47-1.55 3.18 3.18 0 0 0 2.41.77l3.48-.37c.12-.53.81-2.85.89-3.38.47-2.08 3.25-7.28 7.62-7.86zm3 9.19c2.58-1.52 4.11-7.61-1.63-7.61-5.57 0-7.18 7.67-7.37 8.2a11.24 11.24 0 0 0-.24 1.18c5.31-.45 6.99-.45 9.24-1.77zM129.75 28c.08.53.79 2.85.92 3.38l3.48.34a3.2 3.2 0 0 0 2.4-.8 1.06 1.06 0 0 1 1.52 0 1 1 0 0 1 0 1.51 5.58 5.58 0 0 1-4.12 1.43l-2.74-.31a62.11 62.11 0 0 0 3.79 11.52 1.1 1.1 0 0 1-.23 1.27 1.12 1.12 0 0 1-1.31.14c-9.25-5.77-13.19-3.57-14.17-2.75a4 4 0 0 0-1 4.71c1 2.45 4 4.92 9.73 4.58a1 1 0 0 1 1.11 1 1.09 1.09 0 0 1-1 1.15c-6.83.38-10.62-2.81-11.83-5.95a6.13 6.13 0 0 1 1.58-7.17c1.46-1.2 5.61-3.32 13.95 1a81.78 81.78 0 0 1-2.9-9.62c-5.57-.53-9-1.39-11.08-2.9a6.8 6.8 0 0 1-2.46-6.37c.42-2.3 2.85-4.41 6.7-3.93 4.36.55 7.19 5.68 7.66 7.77zm-1.37 3.15c0-.28-.16-.85-.25-1.18-.16-.56-1.83-8.22-7.4-8.18-5.73.05-4.15 6.13-1.56 7.63 2.26 1.33 3.93 1.32 9.21 1.76zM112 17.89a1 1 0 0 1 .57 1.39c-3.84 9.08-10.75 11.45-15.5 10.72-3.88-.58-6.66-3.24-7-6.71-.28-2.74.62-5.73 1.6-8.87a41.11 41.11 0 0 0 1.92-8.63c.2-2.66-2.5-3.64-2.62-3.68a1.07 1.07 0 0 1-.68-1.39 1 1 0 0 1 1.35-.66 5.89 5.89 0 0 1 4.09 5.94 40.68 40.68 0 0 1-2 9.08c-.9 3.07-1.72 5.72-1.47 8 .24 2.54 2.25 4.38 5.19 4.83 4 .61 9.82-1.51 13.17-9.41a1.08 1.08 0 0 1 1.38-.61zM88.85 39.56c-4-1.47-9.16.82-13.87 6.18v-.29l.17-1.27c.28-2.12.77-6.09.9-8.87.12-2.05 1.88-2.37 5.6-2.37a3.67 3.67 0 0 0 3.5-2.94 4.51 4.51 0 0 0-1.15-3.61 19.65 19.65 0 0 0-5-3.12c-2-.74-4.08-1.31-6.63-2.15-.08-1.84-.16-4.49-.16-4.49-.12-2.54-.24-5.52-.33-8.22a31.49 31.49 0 0 0 5-1.64 1.07 1.07 0 1 0-.86-2 34.71 34.71 0 0 1-4.23 1.43v-.94a22.22 22.22 0 0 1 .21-3.93v-.24a1.15 1.15 0 0 0-.82-1.09 1.14 1.14 0 0 0-1.31.86 29.66 29.66 0 0 0-.24 4.5v1.33c-2.25.41-4.71.53-6.55-.29a1.14 1.14 0 0 0-1.43.6 1.07 1.07 0 0 0 .57 1.43 13.83 13.83 0 0 0 7.45.45c.08 2.57.2 5.35.32 7.89 0 0 .09 1.92.13 3.72a12.27 12.27 0 0 0-6.67 0 3.79 3.79 0 0 0-2.7 3.6c0 2.37 3.31 4.17 6.3 4.17a5.5 5.5 0 0 0 3.64-1.26 4.91 4.91 0 0 0 1.63-3.55 35.38 35.38 0 0 1 6.17 1.82c1.48.64 3.6 1.9 4.29 3s.23 2.44-.85 2.42c-3.52-.06-7.81 0-8 4.45-.16 2.7-.65 6.62-.9 8.75l-.16 1.27a1.5 1.5 0 0 0 0 .4 2.23 2.23 0 0 0 1.26 2.21 2.15 2.15 0 0 0 2.42-.53c4.86-5.56 9.16-6.58 11.57-5.68 1.8.65 2.78 2.41 2.78 4.78a5.41 5.41 0 0 1-1.72 4.09c-1.88 1.8-5.15 2.74-8.95 2.58a1.08 1.08 0 1 0-.13 2.16c4.42.21 8.26-1 10.6-3.19a7.59 7.59 0 0 0 2.3-5.59c0-3.27-1.54-5.85-4.15-6.83zm-19.55-14.18a3.5 3.5 0 0 1-2.25.69c-2.13 0-4.13-1.27-4.13-2 0-.45.12-1.1 1.27-1.56a10.24 10.24 0 0 1 6 .21v.2a3.1 3.1 0 0 1-.89 2.46zM57.11 18.55a1.07 1.07 0 0 0-1.51.37s-1.43 2.37-2.6 4.25a20.58 20.58 0 0 1-.2-3 47.93 47.93 0 0 1 1.78-12.25 6.08 6.08 0 0 0 .2-1.68 10 10 0 0 0-1.1-4.24 1.11 1.11 0 0 0-1.48-.41 1.08 1.08 0 0 0-.4 1.47 7 7 0 0 1 .69 4.29c-2.37 8.8-2.25 16.77-.73 19.1a1.05 1.05 0 0 0 .9.49 1 1 0 0 0 .89-.53l3.93-6.41a1.11 1.11 0 0 0-.37-1.45z"/></g></svg>