<svg xmlns="http://www.w3.org/2000/svg" viewBox="0 0 44.43 150.61"><defs><style>.cls-1{fill:#686868;}</style></defs><g id="Layer_1-2"><path class="cls-1" d="M.25 1.79a1.1 1.1 0 0 1 .11-1.51 1 1 0 0 1 1.51.11 9.55 9.55 0 0 1 1.91 3.33c0 .2.07.44.11.64.18 1 .29 2.19.38 3.42s.23 2.74.47 4.15a12 12 0 0 0 3.52 7.15c.74-2.74 1.43-5.18 1.47-5.19a1 1 0 0 1 1.32-.73 1.09 1.09 0 0 1 .73 1.33s-1 3.46-1.86 6.76a1.06 1.06 0 0 1-.66.73 1.09 1.09 0 0 1-1-.11c-5.34-3.65-5.79-9.38-6.16-13.87a31.37 31.37 0 0 0-.44-3.74 7.23 7.23 0 0 0-1.41-2.47zm21.09 1.08a1.06 1.06 0 0 1 .92-1.22 7.27 7.27 0 0 1 5.83 2.12 10.77 10.77 0 0 1 3.15 8.65 1.08 1.08 0 0 1-1.14 1 1.11 1.11 0 0 1-1-1.15 8.6 8.6 0 0 0-2.44-6.94 5.22 5.22 0 0 0-4.1-1.56 1 1 0 0 1-1.22-.9zM36.66 13.52c3.85-.52 6.34 1.58 6.74 3.87a6.82 6.82 0 0 1-2.4 6.4c-2.07 1.52-5.49 2.41-11 3a86.58 86.58 0 0 1-2.82 9.65c8.3-4.38 12.47-2.29 13.94-1.11a6.15 6.15 0 0 1 1.64 7.16c-1.19 3.15-5 6.38-11.78 6.05a1.08 1.08 0 0 1-1-1.14 1 1 0 0 1 1.1-1c5.72.29 8.75-2.21 9.69-4.66a4 4 0 0 0-1-4.7c-1-.82-5-3-14.15 2.86a1.08 1.08 0 0 1-1.62-1.43 62.15 62.15 0 0 0 3.65-11.47c-.9.12-1.84.2-2.74.33a5.57 5.57 0 0 1-4.13-1.39 1.06 1.06 0 0 1 0-1.52 1 1 0 0 1 1.51 0 3.21 3.21 0 0 0 2.41.78l3.48-.37c.12-.53.81-2.85.89-3.38.41-2.19 3.19-7.34 7.59-7.93zm3 9.19c2.54-1.51 4.07-7.61-1.66-7.61-5.56 0-7.17 7.68-7.32 8.24a9.65 9.65 0 0 0-.24 1.19c5.26-.53 6.94-.53 9.18-1.82zM35.81 123.42c.08.53.79 2.85.92 3.38l3.48.34a3.2 3.2 0 0 0 2.4-.8 1.07 1.07 0 1 1 1.49 1.54 5.6 5.6 0 0 1-4.1 1.43l-2.74-.31a62.11 62.11 0 0 0 3.74 11.46 1.09 1.09 0 0 1-1.54 1.41c-9.25-5.78-13.2-3.57-14.17-2.75a4 4 0 0 0-1 4.71c1 2.45 4 4.92 9.73 4.58a1 1 0 0 1 1.11 1 1.09 1.09 0 0 1-1 1.15c-6.83.38-10.62-2.81-11.83-6a6.13 6.13 0 0 1 1.57-7.17c1.47-1.2 5.62-3.32 14 1a82 82 0 0 1-2.91-9.62c-5.56-.53-9-1.39-11.07-2.9a6.8 6.8 0 0 1-2.46-6.37c.42-2.3 2.85-4.41 6.7-3.93 4.38.6 7.21 5.73 7.68 7.85zm-1.37 3.15c0-.28-.16-.85-.25-1.18-.16-.56-1.84-8.22-7.4-8.18-5.74.05-4.15 6.13-1.56 7.63 2.25 1.3 3.93 1.29 9.21 1.73zM26.11 106.41a1 1 0 0 1 .57 1.39c-3.84 9.08-10.75 11.45-15.5 10.72-3.88-.57-6.66-3.23-7-6.71-.29-2.74.61-5.72 1.59-8.87a39.76 39.76 0 0 0 1.92-8.63c.21-2.66-2.49-3.64-2.61-3.68a1.09 1.09 0 0 1-.66-1.39 1.06 1.06 0 0 1 1.35-.66 5.88 5.88 0 0 1 4.09 5.89 40.13 40.13 0 0 1-2 9.08c-.9 3.07-1.72 5.73-1.47 8 .24 2.53 2.24 4.37 5.19 4.82 4 .61 9.81-1.51 13.17-9.4a1.08 1.08 0 0 1 1.36-.56zM38.8 83.37c-4-1.48-9.16.81-13.86 6.17v-.28l.16-1.26c.29-2.13.78-6.1.9-8.88.12-2 1.88-2.37 5.6-2.37a3.66 3.66 0 0 0 3.51-2.93 4.53 4.53 0 0 0-1.19-3.61 19.28 19.28 0 0 0-5-3.13c-2-.74-4.08-1.3-6.62-2.14-.08-1.84-.16-4.5-.16-4.5-.13-2.53-.25-5.52-.33-8.22a31.29 31.29 0 0 0 4.95-1.63 1.11 1.11 0 0 0 .57-1.44 1.1 1.1 0 0 0-1.43-.53 34.71 34.71 0 0 1-4.15 1.38v-.94a23.32 23.32 0 0 1 .2-3.92v-.25a1.09 1.09 0 0 0-2.16-.2 28 28 0 0 0-.25 4.5v1.3c-2.25.41-4.7.54-6.54-.28a1.12 1.12 0 0 0-1.43.57 1.06 1.06 0 0 0 .57 1.43 13.8 13.8 0 0 0 7.44.45c.08 2.58.21 5.36.33 7.89 0 0 .08 1.93.12 3.73a12 12 0 0 0-6.66 0 3.77 3.77 0 0 0-2.7 3.59c.04 2.38 3.33 4.13 6.33 4.13a5.53 5.53 0 0 0 3.64-1.22 4.9 4.9 0 0 0 1.64-3.56 36.41 36.41 0 0 1 6.16 1.82c1.49.64 3.6 1.9 4.3 3s.22 2.43-.85 2.41c-3.52-.05-7.81 0-8 4.45-.16 2.7-.65 6.63-.89 8.75l-.19 1.35a1.57 1.57 0 0 0 0 .41 2.24 2.24 0 0 0 1.19 2.22 2.13 2.13 0 0 0 2.41-.53c4.87-5.57 9.16-6.59 11.58-5.69 1.79.66 2.78 2.41 2.78 4.79a5.47 5.47 0 0 1-1.72 4.09c-1.88 1.79-5.15 2.74-9 2.57a1.09 1.09 0 0 0-.05 2.14c4.42.2 8.26-1 10.59-3.19a7.57 7.57 0 0 0 2.41-5.61c0-3.28-1.58-5.85-4.2-6.83zm-19.55-14.19a3.48 3.48 0 0 1-2.25.7c-2.12 0-4.13-1.27-4.13-2 0-.45.13-1.1 1.27-1.55a10.22 10.22 0 0 1 6 .2v.21a3.06 3.06 0 0 1-.89 2.44zM7.07 62.35a1.1 1.1 0 0 0-1.52.37l-2.55 4.28a20.28 20.28 0 0 1-.21-3 48 48 0 0 1 1.74-12.28 5.65 5.65 0 0 0 .21-1.72 10 10 0 0 0-1.11-4.25 1.11 1.11 0 0 0-1.47-.41 1.09 1.09 0 0 0-.41 1.47 7 7 0 0 1 .7 4.3c-2.38 8.83-2.25 16.8-.74 19.14a1.07 1.07 0 0 0 .9.49 1 1 0 0 0 .9-.54l3.93-6.37a1.13 1.13 0 0 0-.37-1.48z"/></g></svg>