<svg xmlns="http://www.w3.org/2000/svg" viewBox="0 0 39.16 38.54"><defs><style>.cls-1{fill:#efbbea;}</style></defs><g id="Layer_1-2"><path class="cls-1" d="M19.67 21.49a6.87 6.87 0 0 1 2.33 2.23c1.73 4.19-.24 15.06-4.93 14.81a8.49 8.49 0 0 0 .71-2.42c-1.17 1.31-6.25.66-7.81 0 7.08-4.02 9.7-14.62 9.7-14.62zM21.63 20.37a6.93 6.93 0 0 1 3.12-.87c4.49.67 12.81 8 10.18 11.84a8.2 8.2 0 0 0-1.71-1.85c.53 1.67-2.65 5.7-4 6.71.17-8.13-7.59-15.83-7.59-15.83zM21.68 18.12a6.92 6.92 0 0 1 .86-3.12c2.87-3.5 13.4-6.9 15.38-2.65a8.39 8.39 0 0 0-2.46.52c1.7.41 3.53 5.2 3.7 6.88-6.89-4.33-17.48-1.63-17.48-1.63zM19.78 16.92a6.92 6.92 0 0 1-2.25-2.34c-1.53-4.27.97-15.04 5.63-14.58a8.42 8.42 0 0 0-.82 2.38c1.23-1.26 6.28-.36 7.8.36-7.23 3.71-10.36 14.18-10.36 14.18zM17.77 17.93a6.84 6.84 0 0 1-3.16.73c-4.45-.88-12.41-8.56-9.61-12.32a7.88 7.88 0 0 0 1.63 1.93c-.45-1.69 2.92-5.56 4.31-6.51-.55 8.11 6.83 16.17 6.83 16.17zM17.53 20.22a6.89 6.89 0 0 1-.73 3.16c-2.73 3.62-13.1 7.45-15.27 3.28a8.37 8.37 0 0 0 2.47-.66c-1.74-.29-3.76-5-4-6.68 7.06 4.03 17.53.9 17.53.9z"/></g></svg>