<svg id="レイヤー_1" xmlns="http://www.w3.org/2000/svg" xmlns:xlink="http://www.w3.org/1999/xlink" width="840" height="840" viewBox="175.275 .945 840 840" enable-background="new 175.275 0.945 840 840"><path fill="#e5df65" d="M504.359 108.316c23.291-23.496 42.784-50.473 57.777-79.963 139.819 26.924 170.44 165.935 109.313 296.51-74.301-102.958-191.242-77.074-191.242-77.074l-27.501 139.358-40.79-11.556 41.137-132.655c0 0-72.107-77.306-191.589-21.377-22.07-159.463 98.222-254.103 235.846-210.77C493.408 43.449 495.801 76.555 504.359 108.316"/><path fill="#ffd9ff" d="M776.62 502.621c5.045 11.524 7.31 24.071 6.611 36.633-12.603 50.525-104.718 137.438-146.206 103.299 8.485-4.662 16.213-10.588 22.92-17.571-19.615 4.199-62.167-36.421-72.074-53.122C680.275 582.713 776.62 502.621 776.62 502.621v0zM802.258 505.71c12.481 1.63 24.403 6.173 34.803 13.261 36.854 36.563 63.708 160.891 13.41 178.507.419-9.677-.659-19.357-3.196-28.704-6.56 18.948-63.226 34.577-82.554 34.716C821.127 629.278 802.258 505.71 802.258 505.71v0zM818.116 485.354c7.737-9.906 17.725-17.826 29.134-23.104 50.384-12.71 170.592 27.47 160.049 80.226-8.13-5.291-17.005-9.336-26.331-12.002 12.991 15.414-2.794 71.998-12.56 88.726C934.209 532.469 818.116 485.354 818.116 485.354zM808.652 461.289c-4.532-11.554-6.278-24.015-5.095-36.37 14.924-49.811 111.256-131.622 151.058-96.162-8.595 4.12-16.512 9.52-23.483 16.017 19.829-3.329 60.309 39.325 69.532 56.376C908.753 385.957 808.652 461.289 808.652 461.289zM783.233 456.938c-12.401-2.086-24.114-7.15-34.127-14.758-35.081-38.389-56.301-163.405-4.793-178.991-.897 9.646-.282 19.374 1.822 28.83 7.435-18.588 64.765-31.448 84.145-30.693C770.043 332.428 783.233 456.938 783.233 456.938zM765.442 476.438c-7.313 10.213-16.96 18.532-28.14 24.265-49.815 14.838-171.587-20.514-163.022-73.872 8.313 4.952 17.327 8.619 26.734 10.875-13.627-14.745-.411-71.513 8.796-89.223C647.532 434.107 765.442 476.438 765.442 476.438z"/><path fill="#d2e8ca" d="M693.166 693.494H175.275v72.875l125.215-48.833c-25.043 46.328 12.521 85.146 54.092 103.803 82.769 37.564 171.295-9.892 205.73-83.519C583.727 726.927 693.166 693.494 693.166 693.494zM560.062 667.825c-126.218-75.13-126.218-286.869-126.218-286.869C324.031 428.038 236.13 545.865 271.066 667.825H560.062z"/></svg>