<svg xmlns="http://www.w3.org/2000/svg" viewBox="0 0 39.2 38.5" enable-background="new 0 0 39.2 38.5"><style type="text/css">.st0{fill:#FFFFFF;}</style><path class="st0" d="M19.7 21.5c.9.5 1.7 1.3 2.3 2.2 1.7 4.2-.2 15.1-4.9 14.8.4-.8.6-1.6.7-2.4-1.2 1.3-6.2.7-7.8 0 7-4 9.7-14.6 9.7-14.6zm1.9-1.1c1-.5 2-.8 3.1-.9 4.5.7 12.8 8 10.2 11.8-.5-.7-1-1.3-1.7-1.9.5 1.7-2.6 5.7-4 6.7.2-8-7.6-15.7-7.6-15.7zm.1-2.3c0-1.1.3-2.2.9-3.1 2.9-3.5 13.4-6.9 15.4-2.7-.8 0-1.7.2-2.5.5 1.7.4 3.5 5.2 3.7 6.9-6.9-4.3-17.5-1.6-17.5-1.6zm-1.9-1.2c-.9-.6-1.7-1.4-2.2-2.3-1.5-4.3 1-15 5.6-14.6-.4.7-.7 1.6-.8 2.4 1.2-1.3 6.3-.4 7.8.4-7.3 3.7-10.4 14.1-10.4 14.1zm-2 1c-1 .5-2.1.7-3.2.7-4.4-.8-12.4-8.5-9.6-12.3.4.7 1 1.4 1.6 1.9-.4-1.7 2.9-5.6 4.3-6.5-.5 8.2 6.9 16.2 6.9 16.2zm-.3 2.3c0 1.1-.2 2.2-.7 3.2-2.7 3.6-13.1 7.4-15.3 3.3.9-.1 1.7-.4 2.5-.7-1.7-.3-3.8-5-4-6.7 7.1 4.1 17.5.9 17.5.9z" id="Layer_1-2"/></svg>