<svg xmlns="http://www.w3.org/2000/svg" viewBox="0 0 58.82 84.95"><defs><style>.cls-1{fill:#e5df65;}.cls-2{fill:#efbbea;}.cls-3{fill:#bcdbb6;}</style></defs><g id="Layer_1-2"><path class="cls-1" d="M21.25 9.35a27.59 27.59 0 0 0 5-6.92c12.1 2.33 14.75 14.36 9.46 25.66-6.43-8.91-16.55-6.67-16.55-6.67l-2.38 12.06-3.53-1 3.56-11.48s-6.24-6.69-16.58-1.85c-1.91-13.8 8.5-21.99 20.41-18.24a22.28 22.28 0 0 0 .61 8.44"/><path class="cls-2" d="M39.32 43.85a7 7 0 0 1 2.36 2.23c1.73 4.2-.24 15.07-4.92 14.82a8.34 8.34 0 0 0 .7-2.42c-1.16 1.31-6.25.66-7.81 0 7.05-4.02 9.67-14.63 9.67-14.63zM41.28 42.74a7 7 0 0 1 3.13-.87c4.48.66 12.8 8 10.18 11.84a8.2 8.2 0 0 0-1.71-1.85c.52 1.67-2.65 5.7-4 6.71.12-8.13-7.6-15.83-7.6-15.83zM41.34 40.49a6.9 6.9 0 0 1 .85-3.13c2.88-3.5 13.4-6.9 15.39-2.65a8.49 8.49 0 0 0-2.47.52c1.71.41 3.53 5.2 3.71 6.88-6.89-4.32-17.48-1.62-17.48-1.62zM39.43 39.29a6.89 6.89 0 0 1-2.24-2.29c-1.53-4.27 1-15 5.63-14.57a8.21 8.21 0 0 0-.82 2.34c1.22-1.26 6.27-.36 7.8.36-7.24 3.69-10.37 14.16-10.37 14.16zM37.42 40.3a6.78 6.78 0 0 1-3.16.73c-4.45-.88-12.41-8.56-9.6-12.32a8.12 8.12 0 0 0 1.62 1.93c-.44-1.69 2.92-5.56 4.32-6.51-.55 8.11 6.82 16.17 6.82 16.17zM37.18 42.59a6.88 6.88 0 0 1-.72 3.16c-2.73 3.62-13.11 7.44-15.27 3.25a8.37 8.37 0 0 0 2.44-.62c-1.72-.33-3.73-5-4-6.72 7.08 4.06 17.55.93 17.55.93z"/><path class="cls-3" d="M48.36 73.7h-41.36v5.82l10-3.9c-2 3.7 1 6.8 4.32 8.29 6.61 3 13.68-.79 16.43-6.67 1.87-.87 10.61-3.54 10.61-3.54zM37.73 71.65c-10.08-6-10.08-22.91-10.08-22.91-8.77 3.76-15.79 13.17-13 22.91z"/></g></svg>