<svg id="レイヤー_1" xmlns="http://www.w3.org/2000/svg" xmlns:xlink="http://www.w3.org/1999/xlink" width="1920" height="309.057" viewBox="0 0 1920 309.057" enable-background="new 0 0 1920 309.057"><image overflow="visible" width="1366" height="768" xlink:href="37109787.jpg" transform="matrix(1.6223 0 0 1.6223 -2397 23.8623)"/><path fill="#fff" d="M-2430-459.102h2292v687H-2430z"/><path fill="#e5df65" d="M0 309.707V198.216c0-39.028 136.847-65.679 185.461-58.962 33.371-42.777 176.476-78.151 274.438-69.682 32.284-30.981 201.118-53.493 261.574-25.729 89.084-66.355 404.245-48.736 456.684-4.288 67.505-18.336 278.803 13.506 325.896 57.889 49.313-30.017 243.946 13.504 257.286 45.025 32.161-12.864 158.66 21.44 158.66 55.746.0 30.017.0 110.231.0 110.231L0 309.707z"/></svg>