<svg id="レイヤー_1" xmlns="http://www.w3.org/2000/svg" xmlns:xlink="http://www.w3.org/1999/xlink" width="1920" height="234.119" viewBox="0 0 1920 234.119" enable-background="new 0 0 1920 234.119"><image overflow="visible" width="1366" height="768" xlink:href="1A8B8C40.jpg" transform="matrix(1.6223 0 0 1.6223 -2397 -429.3525)"/><path fill="#fff" d="M-2430-912.316h2292v687H-2430z"/><path fill="#e5df65" d="M0-143.508v-111.491c0-39.028 136.847-65.679 185.461-58.962 33.371-42.777 176.476-78.151 274.438-69.682 32.284-30.981 201.118-53.493 261.574-25.729 89.084-66.355 404.245-48.736 456.684-4.288 67.505-18.336 278.803 13.506 325.896 57.889 49.313-30.017 243.946 13.504 257.286 45.025 32.161-12.864 158.66 21.44 158.66 55.746.0 30.017.0 110.231.0 110.231L0-143.508z"/><path fill="#fff" d="M-2397 743.684h2216v798H-2397z"/><path fill="#e5df65" d="M0-.316V231.76c0 0 198.635.0 246.044-26.982 34.382 9.791 187.202-17.632 238.522-37.483 55.87 15.042 233.52-13.335 270.756-30.084 30.084 25.786 365.305 30.084 435.143 2.061 29.535 24.413 198.77 33.396 231.001 23.726 43.027 16.809 204.9 48.158 265.534 34.688 43 27 129 34.076 233 34.076.0-58.02.0-232.076.0-232.076H0z"/><path fill="#e5df65" d="M-822.119 941.62"/></svg>