<svg xmlns="http://www.w3.org/2000/svg" viewBox="0 0 2097.78 1205.33"><defs><style>.cls-1{fill:#fff;}.cls-2{fill:#3d3d3d;}</style></defs><g id="レイヤー_1"><path class="cls-1" d="M0 0v1205.33h2097.78v-1205.33zm1986.35 605.22c-.51 10.3-3.73 20.34-4.76 30.6s2.52 21.1 1 31.29-6.59 19.89-8.59 29.94-4.25 20.2-6.79 30.2-2.21 20.85-5.18 30.69-5.8 20-9.24 29.65-9.8 18.46-13.71 27.94-11.21 17.57-15.59 26.83-8.65 18.64-13.49 27.64c-5 9.16-6.08 20.37-11.44 29.06-5.47 8.87-13.72 15.79-19.59 24.13-6 8.53-13.28 15.78-19.69 23.7-6.56 8.13-11 17.77-18 25.2-7.14 7.64-14.79 14.54-22.32 21.37-7.74 7-13.7 16.17-21.82 22.29a304.53 304.53 0 0 1-25.79 17.53c-8.94 5.4-18.75 9.46-28 13.68-9.5 4.32-18.76 9.92-28.55 12.93-10.18 3.12-20.92 4-30.88 6.51-10.29 2.65-20.47 5.4-30.55 7.5-10.39 2.16-20.81 3.74-31 5.36-10.45 1.67-20.85 3.32-31.13 4.48-10.49 1.17-21.19-.88-31.53-.19-10.51.72-20.82 4.4-31.21 4.68s-21-3.07-31.41-3.18-21 3.66-31.49 3.23-20.89-1.92-31.33-2.62-20.72-3.25-31.17-4.15-21.12 1.5-31.57.47-20.61-3.66-31.07-4.76-20.34-5.87-30.81-7-20.82-1.3-31.3-2.36c-10.32-1-21.06 1.53-31.57.58-10.32-.93-20.65-2.36-31.18-3.15-10.33-.78-20.59-3.81-31.14-4.41-10.32-.59-20.85 1.18-31.42.81-10.33-.37-20.71-2.6-31.3-2.72-10.33-.12-20.76 1.34-31.36 1.49-10.32.16-20.65 2.37-31.24 2.82-9.9.42-20.61-2.76-31.7-1.82-10 .86-20.4 3.16-31.3 4.35-10.11 1.11-20.84.2-31.62 1.54-10.17 1.26-20.72 2-31.42 3.36-10.22 1.34-20.82 1.57-31.47 3-10.25 1.38-19.88 8.88-30.48 10.29-10.3 1.37-21.18-.58-31.76.78-10.33 1.34-21.09 0-31.65 1.33-10.36 1.27-20.58 4.39-31.12 5.59s-20.65 4.34-31.18 5.41-20.95 1.8-31.47 2.73-21.09.11-31.62.87-21.06 0-31.57.57-20.85 5.53-31.36 5.87-21.14-1.82-31.64-1.74-21.08-.64-31.56-.85-21.12.35-31.58-.19-21.24.44-31.65-.49c-10.57-.93-21.27-.85-31.62-2.21-10.53-1.37-20.11-8.39-30.38-10.23-10.46-1.88-21-2.48-31.13-4.89-10.35-2.45-20.55-4.84-30.52-7.89-10.16-3.11-19-9.24-28.74-13-9.9-3.84-21.68-3-31.07-7.54s-18.42-10.58-27.36-16-18.27-10.06-26.37-16.23-14.67-14.69-22.16-21.69-14.23-14.77-21-22.48-16.07-13.55-22.14-21.86-11-17.58-16.35-26.43-9.15-18.43-13.83-27.71-7.54-19.05-11.54-28.59-7.16-19.12-10.47-28.88-9.53-18.6-12.18-28.57-3.83-20.25-5.92-30.37-4.76-20-6.29-30.25-1.87-20.51-2.86-30.81 1.06-20.63.58-30.92-.64-20.43-.64-30.72.89-20.36 1.4-30.65-3.43-20.86-2.44-31.07 7.06-19.86 8.53-30 1.51-20.52 3.51-30.57 5-19.92 7.41-29.86 2.8-20.56 5.73-30.35 9.26-18.6 12.7-28.21 5.5-19.89 9.47-29.28c4-9.55 5.42-20.27 9.94-29.39 4.61-9.3 12.39-16.85 17.49-25.64 5.22-9 12.42-16.43 18.14-24.82 5.91-8.59 6.91-20.64 13.28-28.52 6.53-8.09 17.83-11.85 24.89-19.14 7.23-7.47 10.89-18.62 18.66-25.17 7.93-6.68 18.11-10.51 26.58-16.16s18.12-9.58 27.27-14.16c9.85-4.92 18.28-11.83 27.6-16 10-4.48 20-8.09 29.58-11.77 10.26-4 20.8-5.77 30.55-8.87 10.44-3.34 19.5-10.19 29.5-12.66 10.57-2.61 21.39-3.17 31.59-5 10.62-1.86 21.17-3.2 31.57-4.33 10.6-1.15 21.16-2.54 31.71-3.11s21.23 4 31.91 3.81c10.45-.15 21-7.06 31.77-7 10.38.08 20.88 7.42 31.71 7.57 10.34.14 21-3.76 31.84-3.69 10.3.07 20.87.12 31.79 0 10.28-.09 20.76-3 31.68-3.33 10.27-.32 21.15 6.14 32.07 5.53 10.27-.52 20.36-8.52 31.22-9.41 10.24-.84 21 .62 31.82-.57 10.22-1.11 21.1.53 31.92-.92 10.21-1.37 20.22-6.09 31-7.8 10.11-1.6 20.43-2 30.56-3.63s20-4.39 30.16-6.06 20.79.12 30.9-1.56 20-4.9 30.08-6.58 19.6-7.14 29.71-8.8 20.36-2.61 30.47-4.24 20.63-.89 30.74-2.48 19.75-6.65 29.86-8.18 20.76 0 30.88-1.46 20-4.83 30.19-6.22 20.37-2.74 30.51-4 20.43-2.38 30.58-3.51 20.92 2.68 31.09 1.69 20.23-4.13 30.4-5 20.36-3.43 30.55-4.07 20.7 2.53 30.89 2.09 20.51.23 30.7 0 20.48-3.24 30.68-3.19 20.65-3 30.84-2.66 20.33 5.56 30.51 6.19 20.62-.48 30.77.49 20.86-1 31 .32 20.22 4.38 30.27 6.12 19.35 8 29.33 10.17 20.28 3.1 30.16 5.73 20.44 3.21 30.19 6.32 18.61 8.93 28.19 12.54 18.92 7.68 28.31 11.81 19.58 6.45 28.74 11.1 17.88 10 26.78 15.17 19 9 27.37 14.78c8.63 5.89 16.06 13.39 24 19.74 8.16 6.5 13.84 15.61 21.31 22.56 7.62 7.1 15.27 13.8 22.19 21.34s17 12.76 23.31 20.83 12.23 16.9 17.92 25.45 7.8 19.46 12.83 28.43 8 18.87 12.38 28.2 12.41 17.05 16.1 26.68 3.09 20.66 6.12 30.52 11.71 18.17 14.1 28.22 4.42 20.32 6.18 30.5-1.32 21-.16 31.31 4.83 20.26 5.41 30.57.49 20.67.51 31-1.14 20.62-1.65 30.92z"/><path class="cls-2" d="M152.29 309.74c.29-.42 1.79-1.92 2.06-2.25a46.23 46.23 0 0 0 4-5.09c1.22-1.79 2-3.12 2.61-4.19l.75-1.39a1.21 1.21 0 0 1 1.79-.27c1 .67 1 1.62-2.82 7.19a52.06 52.06 0 0 1-5.68 7.06c-.58.54-1.32 1.32-2.33.62a1.18 1.18 0 0 1-.38-1.68zm14.9 12.79c5.33 2.52 9-2.77 10.4-4.87a47.15 47.15 0 0 0 3.8-6.89c.26-.54 1.26-3.2 1.6-3.69a1.22 1.22 0 0 1 1.81-.31c1 .72.66 1.59 0 3.05a62.08 62.08 0 0 1-5 9.08c-1.44 2.1-4.57 6.66-9.54 6.91a8.53 8.53 0 0 1-4.89-1.29 1.22 1.22 0 0 1-.41-1.88c.61-.91.95-.73 2.23-.11zM212.45 275.13c-2.18 2.14-5.78 1-9-2.27a19 19 0 0 1 .46-26.63c5.82-5.73 14.18-6.5 20.26-.32 8.74 8.88 2.52 19.89 1.55 20.85a1.3 1.3 0 0 1-1.84 0c-.57-.57-.38-.87.35-2.31 3.57-6.79 2-12.91-1.88-16.82-4.86-4.94-12.07-5-17.22.37 7.41 9.27 11.59 22.92 7.32 27.13zm-7.27-3.94c.27.27 3.75 3.82 5.57 2 2.82-2.77-.83-15.34-7.14-23.27a16.91 16.91 0 0 0 1.57 21.27zM252.58 202.39c-.37-.88-.14-1.38.39-1.73a1.26 1.26 0 0 1 1.83.23 48.79 48.79 0 0 1 1.84 5.25 29.48 29.48 0 0 0 2.49-2.64 16.7 16.7 0 0 1 1.32-1.41 1.15 1.15 0 0 1 1.65.44c.58.89 0 1.45-.88 2.45a50.11 50.11 0 0 1-3.85 3.68 112 112 0 0 1 3.1 15.28c.62 4.77.56 5.53-.15 6a1.3 1.3 0 0 1-1.82-.29 7.72 7.72 0 0 1-.28-2.3 79.31 79.31 0 0 0-2.87-17c-.75.64-3.5 2.89-4.18 3.33-1 .65-1.56.41-2-.3s-.2-1.4.65-2a58.37 58.37 0 0 0 4.86-3.52c-.58-1.64-1.22-3.25-2.1-5.47zm21.8-2.83c2.15.42 2.42.6 2.7 1a1.32 1.32 0 0 1-.36 1.86c-.39.25-1.42 0-2.92-.43a30.1 30.1 0 0 0-5-.79 1.3 1.3 0 0 1-1.11-.54 1.19 1.19 0 0 1 .31-1.66c.86-.52 4.85.23 6.38.56zm-5.2 12.44c-1.51-2.32-1.42-5.37-.46-6a1.21 1.21 0 0 1 1.6.28c.16.25.23.51.19 1.85a4.84 4.84 0 0 0 .87 2.89c.76 1.18 4.82 6 5.59 7 2.44-.53 8.31-1.1 9.22.29a1.31 1.31 0 0 1-.28 1.75c-.25.16-.48.21-2.8 0a17.57 17.57 0 0 0-4.66.1c2.53 4.34.54 7.21-1.92 8.81-3.17 2.06-6.42 1.44-7.93-.88-.88-1.35-1.88-4.76 2.89-7.87a15.43 15.43 0 0 1 3.09-1.5c-.82-1.1-4.73-5.72-5.4-6.72zm3.29 10.28c-2.28 1.49-2.94 3-1.94 4.57.76 1.18 2.62 1.69 4.58.41 3.6-2.34 1.51-5.55.84-6.58a14 14 0 0 0-3.48 1.58zM330 171.54c-4.32 1.78-11.92 8.46-16.12 12.22a12.08 12.08 0 0 1-1.86 1.51 1.37 1.37 0 0 1-1.79-.78c-.39-.94-.11-1.15 2.4-3.2 8.82-7.28 12.53-10.33 16.5-12 5.94-2.45 12.17-1.07 14.67 5 4.85 11.76-9.62 19.49-13.32 21-.47.2-1.53.63-2-.58-.43-1 .26-1.36 1.7-2 8.8-4 13.95-10.68 11.17-17.4-1.5-3.6-5.28-6.31-11.35-3.77zM384.37 175.81c-.65 1.65-.82 1.86-1.36 2a1.37 1.37 0 0 1-1.7-.91c-.1-.41.12-.94.65-2.21a52.3 52.3 0 0 0 4.15-17.24c-2.5 1.07-4.5 2-5.25 2.38s-1.91.94-2.16 1a1.09 1.09 0 0 1-1.32-.95c-.24-1 .34-1.31 1.64-1.92 2.29-1 6.16-2.57 7.25-3a64.13 64.13 0 0 0-.22-7.33c-.07-1-.1-1.68.81-1.9s1.47.13 1.62.75a49.22 49.22 0 0 1 .28 7.58 25.44 25.44 0 0 1 3.08-1c5.75-1.37 6.74 2.77 7.18 4.63.89 3.72 1.26 10 .12 13.65a5.75 5.75 0 0 1-4.21 4c-1.37.32-4.7.46-5-.94a1.2 1.2 0 0 1 .82-1.51 5.24 5.24 0 0 1 1.6.14 4.77 4.77 0 0 0 1.92 0c4.59-1.1 3-12 2.38-14.56-.35-1.48-.95-4-4.35-3.2a38 38 0 0 0-3.65 1.18 60.36 60.36 0 0 1-4.28 19.36zm26.63-16.75c-.87.21-1.16-.29-1.7-1.08a27 27 0 0 0-6.88-7c-1-.71-1.14-.78-1.26-1.27a1.16 1.16 0 0 1 .93-1.41c1.08-.25 3.46 1.84 5 3.3 2.69 2.47 4.78 5.2 5 6a1.32 1.32 0 0 1-1.09 1.46zM454.33 133.74c.06.46.35 6.94.39 8 .11 1.92.42 7.53.91 11.5.53 4.26 1.3 10.46 7.76 9.66 4.81-.59 8.84-5.76 10.22-11.51.66-2.65.75-3 1.51-3a1.39 1.39 0 0 1 1.64 1.12c.21 1.69-3.32 14.72-13.06 15.93-3.51.44-7.51-.78-9.26-5.53a30.82 30.82 0 0 1-1.27-6.44c-.42-3.38-1.39-15.34-1.47-19.1 0-.73 0-1.58 1.12-1.72a1.2 1.2 0 0 1 1.51 1.09zM528.25 128c-.63-.77-.87-1.15-.88-1.44a1.19 1.19 0 0 1 1.17-1.22c.55 0 .86.17 1.68 1.28 1.06 1.43 2.16 2.95 3.55 4.92a29 29 0 0 0 4.3-2.28c1.15-.83 1.36-.93 1.74-.95a1.27 1.27 0 0 1 1.3 1.25c0 .73-.32 1.09-1.85 1.94-1 .52-2.61 1.37-4.11 2 1.66 2.42 8.22 11.82 8.3 13.39a1.53 1.53 0 0 1-1.53 1.57 4.68 4.68 0 0 1-1.9-.53 26.16 26.16 0 0 0-10.8-2.06c-4 .21-7 2.38-6.81 5.65.3 5.52 7.52 5.13 10.74 4.95.64 0 3.27-.3 3.82-.33a1.12 1.12 0 0 1 1.29 1.12c.07 1.23-.77 1.49-4 1.67a27.22 27.22 0 0 1-8.67-.6 7.31 7.31 0 0 1-5.56-6.64c-.23-4.29 3.47-7.6 9.16-7.91a30.18 30.18 0 0 1 11.53 2.15c-1.54-2.56-3.83-6.27-7.65-11.6a48.84 48.84 0 0 1-13.81 3c-.64 0-1.87.1-1.94-1.13 0-.72.28-1.25 1.25-1.3a40.14 40.14 0 0 0 13.07-2.49c-1.84-2.52-2.89-3.83-3.39-4.41zM585.89 153.58c-1 1.45-1.23 1.62-1.78 1.62a1.38 1.38 0 0 1-1.45-1.28c0-.42.13-.59 1.19-2a53.41 53.41 0 0 0 8-15.83l-4.88.94c-.43.09-2.81.65-3.11.65a1.1 1.1 0 0 1-1.06-1.23c0-.94.55-1.15 1.53-1.37 2.42-.47 5.27-.9 8.2-1.33a70.64 70.64 0 0 0 1.56-7.57c.13-.64.3-1.24 1.23-1.24 1.11 0 1.36.51 1.36 1.06a49.81 49.81 0 0 1-1.47 7.45 23.17 23.17 0 0 1 3.23-.26c5.91 0 5.92 4.24 5.92 6.15 0 3.83-1.08 10-3 13.32a5.71 5.71 0 0 1-5 2.9c-1.4 0-4.68-.63-4.68-2.08a1.2 1.2 0 0 1 1.15-1.27 5.84 5.84 0 0 1 1.53.5 4.51 4.51 0 0 0 1.87.42c4.72 0 5.68-11 5.67-13.61 0-1.54 0-4.13-3.49-4.12-1.36 0-3.74.3-3.83.3a60.87 60.87 0 0 1-8.69 17.88zm21.82-22c1.87 0 8.52 8.79 8.53 10.75a1.37 1.37 0 0 1-1.41 1.19c-.72 0-.93-.42-1.4-1.36a28.56 28.56 0 0 0-5.25-7.26c-1.53-1.53-1.7-1.7-1.7-2.21a1.22 1.22 0 0 1 1.23-1.14zm2.88-5.28c.56 0 2.09 1.49 2.86 2.25 1.44 1.4 1.7 1.83 1.7 2.34a1.18 1.18 0 0 1-1.15 1.11c-.38 0-.72-.38-2-1.83-.6-.63-.77-.8-2-1.91a1.36 1.36 0 0 1-.51-.89 1.18 1.18 0 0 1 1.1-1.1zm3.65-3.32c.77 0 4.52 3.65 4.52 4.59a1.15 1.15 0 0 1-1.15 1.15c-.34 0-.46-.05-1.78-1.53a30.86 30.86 0 0 0-2.26-2.21 1.06 1.06 0 0 1-.47-.89 1.17 1.17 0 0 1 1.14-1.09zM650.31 150.88c1.48 0 3.85 1.57 4.74 2.22a1.77 1.77 0 0 1 .92 1.2c0 .12.89.56 1 .69a9.53 9.53 0 0 1 1.29 2.48c0 .85-.15 2.33-1.34 2.32-.34 0-.93-.52-1.31-.86-.08-.09-.63-.48-.67-.56s-.2-1.11-.33-1.24c-1.72-2.4-1.93-2.65-3.36-3.39 0 0-.09-.09-.34-.77-.08-.21-1.14-.95-1.22-1.2-.08-.09-.08-.17-.08-.34.01-.34.23-.55.7-.55zM722.91 152.06c-2.54-3.62-3-7.95-3.16-12.67-.12-3.95 0-8 .1-9a1.34 1.34 0 0 1 1.32-1.41 1.27 1.27 0 0 1 1.44 1.19c0 .3-.1 2.09-.13 2.47-.14 2.52-.18 5.07-.11 7.45.09 3 .34 6.67 2.09 9.68.36.58 1.7 2.75 3.36 2.7 1.27 0 2.46-1.44 3.84-3.78.72-1.26 1-1.48 1.44-1.49a1.3 1.3 0 0 1 1.27 1.28c0 .76-3.07 6.56-6.55 6.67-.94.06-2.95-.26-4.91-3.09zm25.44-14.88a19.64 19.64 0 0 1 3 7.18 1.29 1.29 0 0 1-1.32 1.4c-1.06 0-1.26-.64-1.69-2.33a18.16 18.16 0 0 0-6.07-9.16c-1-.78-1.14-1-1.15-1.37a1.42 1.42 0 0 1 1.36-1.32c1.1-.03 4.09 2.89 5.87 5.6zM793.73 119.37a1.11 1.11 0 0 1 1.08-1 1.2 1.2 0 0 1 1.49 1c.05.38-.42 6.34-.46 7.07a54.06 54.06 0 0 0 7.41-2.14c.41-.18 2.74-1.13 3-1.17a1.17 1.17 0 0 1 1.29 1.14c.1.84-.43 1.07-1.94 1.68a66.44 66.44 0 0 1-9.91 2.77c-.18 3.62-.36 7.28-.45 10.93a17 17 0 0 1 10.37-5.44c4.94-.58 8.36 2.32 8.88 6.76.81 7-5.63 10.2-9.4 11.62a34.76 34.76 0 0 1-6.68 1.8 1.33 1.33 0 0 1-1.68-1.22c-.13-1.05.63-1.18 1.89-1.37 3.75-.56 14.17-3.31 13.32-10.62-.35-3-2.49-5.23-6.33-4.79a13.71 13.71 0 0 0-9.56 6.16c-.67 1.19-.82 1.38-1.54 1.46a1.33 1.33 0 0 1-1.65-1.3c-.11-.93.36-11.65.4-13.53-1.63.31-4 .72-5.67.91-1 .11-2 .23-2.09-1-.12-1 .49-1.3 1.21-1.38.46-.06 2.5-.21 2.92-.26 1.23-.14 2.32-.31 3.71-.51.06-.81.28-7.04.39-7.57zM859.41 135c.09-.67.22-1.34 1-1.49a1 1 0 0 1 1.25.67c.08.42-.37 2.89-.41 3.37-.13 1.8-.09 3.65 0 5 0 .85-.23 1.29-1 1.44-1 .18-1.55-.44-2.25-1.39-2.21-3-3.68-7.09-4.61-12.07a65.5 65.5 0 0 1-.89-16.53c.15-2 .18-2.72 1.19-2.91a1.22 1.22 0 0 1 1.5.85c.06.33-.28 3.59-.33 4.25a55.45 55.45 0 0 0 .73 13.93 32.21 32.21 0 0 0 3.46 9.9 31.41 31.41 0 0 1 .36-5.02zm12.28-25.07c0-.21-.37-1.27-.41-1.44a1.3 1.3 0 0 1 2.49-.6c.3 1.16 1.45 6.31 1.75 7.68a24.34 24.34 0 0 0 3.75-1.66 15.75 15.75 0 0 1 1.73-.91c.71-.13 1.19.55 1.29 1.1.16.83-.39 1.15-1.26 1.58a47.66 47.66 0 0 1-5 2.07c.48 2.07 2.54 11.16 2.94 13 4.27.66 7.74 3 8 4.12a1.21 1.21 0 0 1-.8 1.45c-.55.11-1.09-.23-2.35-1.2a13.51 13.51 0 0 0-4.31-2c.37 2 1.13 6.41-5.52 7.66-5.09 1-7-1.35-7.42-3.31-.73-3.89 3.87-6.1 7.18-6.72a14.66 14.66 0 0 1 2.85-.24c-1-5.13-1.77-8.44-2.68-12.16-2 .54-2.71.77-4.05 1a44 44 0 0 1-4.66.53 1.23 1.23 0 0 1-1.35-1 1.15 1.15 0 0 1 .89-1.47c.25 0 1.41-.05 1.63 0a30.33 30.33 0 0 0 3.43-.39c.88-.17 2.49-.56 3.6-.9-.62-1.97-1.28-4.57-1.72-6.22zm2.11 23.07c-2.89.54-5.43 2.19-5.08 4 .31 1.67 2.26 2.17 4.48 1.75 4.64-.88 4.19-3.69 3.76-6a13.19 13.19 0 0 0-3.16.25zM938.16 110.81c4.91-.85 9.62 1.71 10.52 7 1.19 6.95-5 11.77-13.77 13.28-1.3.22-1.89-.2-2-1s.35-1.23 1.15-1.37c6.78-1.16 13.13-4.15 12-10.48a6.27 6.27 0 0 0-7.53-5.17c-5.91 1-10.32 8.46-10.54 8.93-.81 1.6-1 1.8-1.53 1.9a1.11 1.11 0 0 1-1.42-1c-.08-.46 0-2.84 0-4.27.11-4.37.13-6.79 0-11.12-.07-2.41 0-2.67 1-2.85s1.42.44 1.51 1-.1 10.71-.14 12.74c1.75-2.25 5.48-6.69 10.75-7.59zm-10.22-14.29c1-.17 5.69 1.22 6.42 1.44 3.32 1 3.52 1.16 3.66 2a1.27 1.27 0 0 1-1.06 1.6 7.68 7.68 0 0 1-2.22-.61c-.74-.26-4.78-1.46-6.48-1.82-.67-.14-1.22-.3-1.35-1.06a1.23 1.23 0 0 1 1.03-1.55zM993.88 87.58c.08.47.57 6.93.65 8 .16 1.91.65 7.52 1.27 11.46.66 4.25 1.62 10.42 8.05 9.42 4.79-.74 8.65-6 9.86-11.82.57-2.67.65-3 1.41-3.1a1.38 1.38 0 0 1 1.67 1.07c.26 1.68-2.85 14.82-12.56 16.33-3.48.54-7.53-.55-9.42-5.24a30.5 30.5 0 0 1-1.47-6.4c-.52-3.36-1.87-15.29-2.06-19 0-.73-.08-1.58 1.06-1.76a1.2 1.2 0 0 1 1.54 1.04zM1066.11 77.88c-.7-.72-1-1.07-1-1.37a1.18 1.18 0 0 1 1.06-1.3c.55-.08.87.09 1.79 1.12 1.17 1.34 2.4 2.75 4 4.6a29.09 29.09 0 0 0 4.1-2.64c1.07-.92 1.27-1 1.65-1.08a1.26 1.26 0 0 1 1.4 1.13c.1.72-.23 1.11-1.68 2.08-.91.6-2.49 1.59-3.93 2.35 1.87 2.28 9.2 11.08 9.41 12.64a1.53 1.53 0 0 1-1.39 1.7 4.81 4.81 0 0 1-1.94-.37 26.33 26.33 0 0 0-10.94-1.14c-4 .56-6.75 3-6.3 6.21.77 5.48 7.93 4.47 11.13 4 .63-.09 3.22-.58 3.77-.66a1.14 1.14 0 0 1 1.39 1c.17 1.22-.65 1.55-3.85 2a27.44 27.44 0 0 1-8.69.14 7.3 7.3 0 0 1-6.1-6.15c-.6-4.25 2.81-7.86 8.45-8.65a30.21 30.21 0 0 1 11.67 1.16c-1.76-2.42-4.35-5.92-8.61-10.91a48.69 48.69 0 0 1-13.5 4.26c-.63.09-1.86.26-2-1-.1-.72.17-1.27 1.14-1.41a40.42 40.42 0 0 0 12.73-3.59c-2.05-2.35-3.2-3.56-3.76-4.12z"/></g></svg>