<svg xmlns="http://www.w3.org/2000/svg" viewBox="0 0 349.67 568.75"><defs><style>.cls-1{fill:none;stroke:#fff;stroke-linecap:round;stroke-linejoin:round;stroke-width:3px;}</style></defs><path class="cls-1" d="M31.72 230.22c-4.06.72 24.89 1.48 31.41-2.37 6.81-.6 24.89-1.19 35.26-7.41 2.67 2.07 7.7 5.33 8.89 7.11a87.35 87.35 0 0 1 0 9.18l4.15 3s-2.37 12.15 3.26 22.67c-1.19 2.22-4.75 9.1-3.63 11.77s6 7.06 6.44 8.64c-.89 2.47-4.11 12.25-2.89 15.25-1.89 2.67-2.11 7.78.78 10 1.67 2.22 6.44 7.78 12 7.89s5.44-10.11 4.11-14.33c4 2.22 8.89 10.55 9.78 10.88s-.11 9.78 7.78 17.12c4.88 6.33 4 10 3.88 11.33s4 4.55 5.56 5.55c-.67 1.78-1.33 6.45-.78 7.56s7.22 10.89 7.89 13.56-3 8-5.78 11.22-5.44 14.89-15.55 19.44c-1.67 2.11-.67 5.67-4.11 7.34-2.67 2.11 0 4.88-1.45 6.22-2.55.78-10.66-.78-10.22 2.22s.67 3.89 3.78 4.78c.22 2.33-.22 7.78 2.89 7.66s12.89-6.44 17.66-3.55 7 12-1.85 16c-1.7 5.51-3 23.29-4.59 25.18 1.55 2 8.78 9.33 8 13.78s-2.11 17.89-3.56 19.44c.78 1.89 4.34 6.45 4.34 6.45-1.11 1.55-2.45 5.11-2 6.44s5.55 20.45 5.55 23-.11 8.34 2.22 9.78 11.67 7.11 14.56 14.22c2.11.22 2.56 3.56 2 5.34 3.89 2.77 6.89 2.88 7.11 4.66 1.56-1.78 2.33-5.78 4-6.44s6.67-4.56 8.56-10.56.89-11.89 3.22-13.89 2.78.34 5-.22 8.33-8.44 19.11-7.44c1.89 2 6.44 4.11 7.11 4.66.67-4.22.78-23.44 3.11-26.11s.56-14.66 3.11-15.33 6.67-.89 9.11-1.22c2.23-1.67 2.45-4 6.56-4s22.52-21.08 21.33-26.11c-1.77-5-8-8-8-10.37s-.59-11.56-.29-12.89c4.15.59 9.92.14 11 .89s8 7.7 9.19 8c1.92-1.93 3.85-4.15 4.59-3.71l4 1.63 8.59-5.18s5.33 4 5.93 2.66 6.81-7.85 1.18-15.4-10.07-17-11-21a36.82 36.82 0 0 1-.89-8.15c-6.37-2.37-14.67-5-13.33-9.33l1-16.45s-6.66-5.18-6.66-8l-.89-18.81 1.63-9.78-5.88-3.44s-10.67-3.26-9.78-10.52 8.74-12.14 12.15-11.26c-.89-3.7-9-20.59-9-20.59l-8.74-6.1s-5.92-16.12-5.33-22.64c-3-4.15-12.74-14.07-12.74-14.07s-.15-10.52-4.89-15-4.44-10.66-3.26-12.74l11.26-8.59.15-8.3 5.93-4-1.49-11.7s-20.14-11-20.14-13.33c1-2.52 4.44-11.11 4.29-16.3 4.59-1 13.19-2.81 15.41-6.22 5.93-.15 14.81 0 14.81 0l7.41-9.78s-1.33-4.44 1.78-3.85 7.26 0 7.26-4.89l-2.52-5.78s12.15-2.52 14.37-1.77 11.56 1 13.78 1.92l12.29 8.15s11.71-4.59 17.78-2.82c2.08-3.55 3.11-9.77 5.63-10.81 1.19-2.52 1.34-8 5-12.59-1.78-2.67.44-9.78 1.78-10.52-4-.59-15.56-5.78-15.56-5.78s-15.26 3.85-15.7 1.63c-1.93-1.3-6.63-5.55-8.93-15.82-1.63-2.37-6.37-7.71-6.37-7.71s1-9-1.63-12c2.81-2.22 10.37-8.44 11.7-10.37l2.24-10.1-5.18-10.52-16.89-4.44-4.44 3.7-3.86-8-12.44 9.78-7.85-3.7-5.34 3.55-2.22 6.22-17.63 6.41-12.15-6.66-11.25-1.48-4.15 2.37-28.3-25.5-7.24 5.49.89 8.44-21.5-12.59-9.78 2.22s-22.07-14.07-26.07-10.07l-11 11.25 4 4.3 6.37-3.55 5 5.63-6.67 4.29 4.45 5 4.44-3.26 5 5-5 7 .45 7s-8 1.93-7.71-4.74c-6.51-6.52-26.81-26.07-26.81-26.07l-5.63 5 1 5.78 10.18 13.22-5.18 4.74-7.41-7-4.3 1.48-4.89-4.89 1.93-3.85-4.3-3.71-11.26 13.97 6.23 3.11-.89 2.67 2.37 3.41-3.41 5.77-9.93-6.07-15.26 21.77 13.04 11.53-7.85 7.14-8.15-6.81-9.92 14.52 14.07 16.15-5.19-4-7.55 6.67-12-8.3-7.26 10.22 6.81 5.48-5 3.4-4.89-3-4.92 5.82 11.26 7.26-5 8s7.85 7.11 7.85 9 2.67 9.33 8.74 12.29 3.41 21.19 14.23 25.93c1.18 7.55 1.77 28.15 1.77 28.15s-4.48 10.55-8.63 11.3z" id="Layer_1-2"/></svg>